<svg id="Capa_1" data-name="Capa 1" xmlns="http://www.w3.org/2000/svg" xmlns:xlink="http://www.w3.org/1999/xlink" viewBox="0 0 1920 1080"><defs><style>.cls-1{fill:#600405;}.cls-2{fill:#930201;}.cls-3{fill:#940202;}.cls-4{fill:#9c0303;}.cls-5{fill:#6d0404;}.cls-6{fill:#8a0100;}.cls-7{fill:#bf0d0e;}.cls-8{fill:#424242;}.cls-9{fill:#b90a0c;}.cls-10{fill:#8f0201;}.cls-11{fill:#960606;}.cls-12{fill:#a70505;}.cls-13{fill:#b60a0c;}.cls-14{fill:#b80b0c;}.cls-15{fill:#880606;}.cls-16{fill:#8b0606;}.cls-17{fill:#b70a0c;}.cls-18{fill:#b30809;}.cls-19{fill:#870707;}.cls-20{fill:#8f0606;}.cls-21{fill:#9f0505;}.cls-22{fill:#9f0405;}.cls-23{fill:#9b0303;}.cls-24{fill:#650405;}.cls-25{fill:#dcdbdb;}.cls-26{fill:#afafaf;}.cls-27{fill:#54d3f0;}.cls-28{fill:#b3b0b0;}.cls-29{fill:#b1b0b0;}.cls-30{fill:#fefefe;}.cls-31{fill:#b0b0b0;}.cls-32{fill:#fff;}.cls-33{fill:#51ad60;}.cls-34{fill:#4b8144;}.cls-35{fill:#6bd9f2;}.cls-36{fill:#88e1f5;}.cls-37{fill:#9ff0fa;}.cls-38{fill:url(#Degradado_sin_nombre_11);}</style><radialGradient id="Degradado_sin_nombre_11" cx="306.44" cy="786.5" r="27.25" gradientUnits="userSpaceOnUse"><stop offset="0.69" stop-color="#b4f7fc"/><stop offset="1" stop-color="#b4f7fc" stop-opacity="0"/></radialGradient></defs><path class="cls-1" d="M1480.69,214.19q-.32,133.4-.61,266.78c-.07,36.33.08,72.66.13,109,7.35,14.8,2.56,30.53,3.57,45.81q.9,141.54.09,283c-.32,11.25-.2,22.51-.2,33.78,0,6.4,2.32,10.57,9.36,10.49,42.56-.46,85.24,2.73,127.66-1.48,44.88-4.44,82.87-24.3,114.12-56.89,3.17-3.29,6.08-7.13,10.87-8.07,3.1-.6,4.81.66,3,4.1-28,46.07-69,73.78-121,86.2-16.38,3.91-33,5-49.78,5q-541.61-.08-1083.21,0-109.16,0-218.31,0c-83.68-.09-144.87-61.14-144.89-144.7q-.09-304.34.11-608.67c0-9.16-.35-16.4-.18-27.46,3-17.33.8-34.8,1.25-52.2.39-15,0-30,.13-45,0-5.18-1.86-12.76,5.08-13.63s15.89-5.29,21.26,4.22c2.23,8.6.95,17.36,1.14,26.06.22,12.18.31,24.38-.1,36.56.09,7.62.06,15.26-.14,22.88-.23,14-.22,13.86,13.17,14.53,14.07.71,28.13-.06,42.19,0,15.72,0,13.7,1.45,13.1-14.2q-.33-11.4-.18-22.77-.54-17.79,0-35.55c0-7.59-.12-15.2.14-22.78-.06-13.06-1.11-14.34-13.95-14.23-13.71.11-27.41-.13-41.12-.08-4.77,0-11.58,1.9-11.77-6.76H237c6.88,11.13,3,23.39,3.69,35.16.37,18.9.48,37.8,0,56.68-.16,10.32,1.11,20.7-1.17,30.92-2.33,5.84-7.57,6.1-12.35,5.28-7.81-1.33-12.21,2.42-15.69,8.5-12,5.26-24.74,2.62-37.11,2.63-10.18,0-14.14,3.49-14,13.84.16,16.25,1.24,32.56-.79,48.78-8.89,16.46-10.91,33.07-1,49.93,2.72,8.59,2.21,17.27.83,26-9,16.57-10.49,33.23-.55,50,2.38,6.91,1.68,14.07,1.68,21.14.05,133.75-.29,267.51.21,401.25.18,49.12,22,86.57,65.42,110.68,17.63,9.79,36.83,13.8,56.67,13.94,54.35.4,108.7.15,163,.13,5.87,0,11.74,0,17-3.4,2.87-1.67,5.81-1.38,8.78-.33a19.23,19.23,0,0,0,6.79,1q302.43.24,604.83,0,173.16,0,346.33,0c2.92,0,5.85,0,8.78,0,16.7-.24,17.61-1,17.62-17.94q.09-155.55,0-311.12c0-5.43-.14-10.87.38-16.29.55-5.76,2.44-10.85,8.53-12.64,7.69-2.26,8.64-8,8.64-14.69-.08-120,.27-240-.19-360a18.15,18.15,0,0,0-.54-3.69c-5.08-6.68-12.37-3.85-18.63-3.87-137.15-.46-274.3-.12-411.46-.1-185.23,0-370.47-.31-555.71,0-4.59,0-9.21-.45-13.71.84-7.17,1.9-11.51,1-7.7-7.84,10.53-5.37,21.86-2.48,32.83-2.91,15.32-.58,16-.93,16.12-16.17,0-4.53,0-9.07.13-13.61q-.71-28.38,0-56.74c.71-11.83-3.22-24.16,3.7-35.34H653.85c5.2,6.59,3.38,14.31,3.54,21.72.06,3.73.19,7.45,0,11.18.35,4.54.06,9.08.06,13.63.52,16.49.42,33,.1,49.46,1.17,25.49,1.17,25.5,26.76,25.5H1266c2.51,0,5,0,7.52,0,18.46-.15,18.75-.42,19.16-18.94.07-2.93.39-5.83.41-8.75-.4-15.68-.46-31.37,0-47,0-4.55-.3-9.1.07-13.64-.13-3.75-.15-7.49,0-11.23.19-7.46-1.77-15.26,3.53-21.88h135.61c6.87,11.11,3,23.35,3.69,35.1.35,17.94.47,35.88,0,53.8.2,7.45.09,14.91,0,22.37,0,7.27,3.26,10.39,10.52,10.6,10.32.32,20.75-1.27,31,1.41A6.49,6.49,0,0,1,1480.69,214.19Z"/><path class="cls-2" d="M1296.73,88.06q-.06,11.32-.14,22.65c-11.69,4.87-23.92,1.91-35.82,1.92q-191.6.21-383.2.18c-71.78-.07-143.56.13-215.33-.29-2.92,0-5.89.56-8.25-1.81l-.14-22.65Z"/><path class="cls-3" d="M518.24,88.06l-.18,35.27c-4.82,4.36-10.83,3.9-16.61,3.91q-123.85.15-247.69,0c-5.78,0-11.8.45-16.61-3.91L237,88.06Z"/><path class="cls-4" d="M1432.53,123.28l-.19-35.22h47.72l2,4.86c-2.79,10.33,1.81,21.27-2.61,31.48C1463.72,128.3,1448,129.72,1432.53,123.28Z"/><path class="cls-5" d="M156.64,105.67c-3.55-9.41-11.31-4.65-17-4.34-6,.32-5.55,6.2-5.55,10.8,0,28.68.06,57.36-.09,86,0,4.36,1.69,9.26-2.49,12.9,0-32.39.42-64.78-.19-97.15-.22-11.64,3-18,15.36-15.73,8.74,1.61,9.85-4.91,12.49-10.13h2.51c2.41,5.64,7.54,4,11.75,4.08q22.68.19,45.35-.18c9.53-.15,15.23,3,13.19,13.71-4,3.89-9.31,3.06-14.15,3.37-16.56,1.07-33.15.2-49.72.55C163.81,109.67,159.77,108.93,156.64,105.67Z"/><path class="cls-6" d="M1748.71,900.73c-4.33-5.55-6,.67-7.43,2.3a187.52,187.52,0,0,1-64,46.81c-23.08,10.3-47,16.65-72.29,16.88-36.76.32-73.52-.45-110.26.38-12.43.28-16.07-3.76-14.92-15.56,1-9.93.24-20,.26-30,5-4.22,11-3.35,16.79-3.37,34.71-.09,69.41.34,104.11-.13a140.67,140.67,0,0,0,139.15-137c1.87-66.17-47.05-126.25-113.05-138.85a178.08,178.08,0,0,0-34.88-3.31c-31.78.25-63.55.13-95.33,0-5.77,0-11.82.84-16.79-3.37l.09-45.56c39.74.08,79.48.09,119.21.26,110.79.49,196,91.08,188.91,201.55C1785.76,831.67,1770.22,867.42,1748.71,900.73Z"/><path class="cls-1" d="M1479.86,123.29c1.45-10.07-2.15-20.51,2.22-30.37,2.77,39.55,1,79.15.9,118.73,0,.85-1.49,1.69-2.29,2.54l-.75-.72c-6.75-11.2-2.8-23.48-3.57-35.28-.6-13.62-.23-27.25-.2-40.87C1476.18,132.36,1476.25,127.34,1479.86,123.29Z"/><path class="cls-6" d="M156.9,291.93c-.1-19.49.07-39-.41-58.45-.19-7.69,2.71-9.72,10.11-10.06,15.09-.69,30.44,3.27,45.27-2.29,4.44-4,9.92-3.79,15.39-3.78q109.73.06,219.47,0c18.7,0,22.27,3.39,22.28,21.81q.12,352.34,0,704.67c0,5.34.85,11-3.44,15.45.49,6.33-3.09,7.55-8.58,7.54-61.09-.12-122.31,2.32-183.25-.74C206,962.71,156.79,907.55,156.69,840q-.31-212.73,0-425.46c9-6.74,19.31-3.34,29-3.71,16.88-.65,17.36-.66,17.32-17.88-.07-26.63,2.35-24.84-25.06-25.09-7-.06-14.15,1.54-21.12-.64l-.17-28c9-6.74,19.31-3.35,29-3.72,16.88-.64,17.36-.65,17.32-17.87C203,291,205.43,292.82,178,292.57,171,292.51,163.87,294.1,156.9,291.93Z"/><path class="cls-7" d="M1477.3,221.39q.12,186.93.32,373.85c0,6.37-.94,10.89-8.72,10-7.45-.87-9.17,3.1-9.07,9.74.28,18,.09,36,.09,53.95,0,94.09-.16,188.18.22,282.27,0,10.39-2.79,13.34-13.26,13.33q-486.89-.45-973.76-.31c-3.57-5.14-3.51-11-3.51-16.89q0-354,0-707.9c0-17.48,2-19.23,19.42-19.57,139.07-2.73,278.15.81,417.22,0,131.51-.8,263,.8,394.54-.69,56-.63,112,.24,168,.37C1471.74,219.49,1474.7,219.76,1477.3,221.39Z"/><path class="cls-8" d="M1480.12,635.51c41,0,82-.42,123,0,67.25.64,126.69,51.5,138.09,117.57,14,81-39,153.7-120.74,166.58-15.9,2.51-31.65,1.71-47.47,1.87-30.94.32-61.89,0-92.84,0Z"/><path class="cls-9" d="M1296.51,133.31l.06,47.51c-3.29,4.31-7.83,6-13.06,6.41-4.59.34-9.19.33-13.78.33q-296.45,0-592.89-.07c-7.77,0-16,1.7-22.82-4.18q0-25,0-50c6.81-5.82,15.08-4.09,22.84-4.1q259.53-.15,519-.07c27.58,0,55.17-.08,82.75.06C1284.88,129.23,1291.37,128.52,1296.51,133.31Z"/><path class="cls-10" d="M654,183.31q314,.08,627.9.24c5.18,0,9.8-1.66,14.65-2.73.86,32.76.86,32.76-32.17,32.76q-295.4,0-590.79,0c-22.41,0-19.48,3-19.78-20.2C653.78,190,654,186.65,654,183.31Z"/><path class="cls-9" d="M237.15,123.33H518.06q0,28.74,0,57.48c-3.37,3.94-8,4.21-12.63,4.14-55.5-.83-111,0-166.52-.37-27.54-.16-55.09,0-82.63,0-6.5,0-13.5,1-19.15-3.81Z"/><path class="cls-10" d="M237.14,180.82c49.5.43,99,1,148.49,1.25,40.46.2,80.93,0,121.39-.1,3.68,0,7.37-.75,11.05-1.15.88,32.76.88,32.75-31.45,32.76-7,0-14.06.06-21.09.09-4.46,4.06-10,3.66-15.41,3.66q-98.91,0-197.81,0c-5.36,0-11,.74-15.3-3.72Z"/><path class="cls-11" d="M1477.3,221.39c-14.2,3.28-28.57,1.87-42.83,1.09-47.45-2.6-94.87-.94-142.32-.15-44.73.75-89.49.71-134.23.77-56.23.07-112.46-.19-168.69-.14s-112.51.41-168.77.41c-52.53,0-105.09.52-157.59-.78-27.89-.69-55.78-.79-83.66-1.57-32.29-.91-64.46,3.66-96.76,1.64-6.31-.39-10.46,2.5-9.48,9.78a19.11,19.11,0,0,1,0,2.51q.07,364.64.14,729.25l-2.81-2.41c-2.91-5-2.27-10.53-2.27-15.93q0-355.71,0-711.42c0-5.37-.86-10.95,2.49-15.82,3.72-4.07,8.63-2.41,13-2.41q490.36-.12,980.72.1C1468.76,216.31,1475.85,212.49,1477.3,221.39Z"/><path class="cls-12" d="M1296.51,133.31H654.06q0-6.3,0-12.61c7.25-6,16-4,24.12-4q275.18-.17,550.36-.09c17.14,0,34.27-.1,51.41.07,5.8,0,11.82-.41,16.59,4Z"/><path class="cls-12" d="M1296.53,120.7H654q0-5,0-10c35.11-.35,70.22-.89,105.33-1q85.66-.3,171.33-.16c63.65,0,127.3.25,190.94.27,55.89,0,111.78-.13,167.66-.14a49.91,49.91,0,0,1,7.34,1Z"/><path class="cls-5" d="M470.54,218.62l-.06,726.89c0,5.43-.11,10.85-.17,16.28l-4.75-2.47q0-360-.07-720c0-18.16,0-18.18-17.75-18.18H211.87c-.32-5.73.81-9.52,8.15-8.32,5.55.92,11.32.56,17,.78l228.52.08C465.63,216.9,464.51,221.38,470.54,218.62Z"/><path class="cls-13" d="M1427.17,130.88q0,17.46-.07,34.92c-2.88,2.79-6.5,3.47-10.3,3.73-34.84,2.32-69.69,0-104.53,0-3.8,0-7.42-.9-10.3-3.69l0-37.41c19.45-5.53,39.41-2.76,59.08-2.87,17.37-.11,34.84-.15,52.22,1.36C1418.18,127.31,1423.32,126.78,1427.17,130.88Z"/><path class="cls-14" d="M523.49,165.79q0-17.47-.08-34.95c2.72-5.46,7.91-3.85,12.17-3.79,17.4.23,34.81.06,52.2.79,15.3.64,30.54-1.38,45.86-.53,6,.33,11.69-.2,15.06,6l-.12,32.46c-4.31,4.18-9.83,4.06-15.21,4.08q-47.32.21-94.67,0C533.33,169.85,527.8,170,523.49,165.79Z"/><path class="cls-15" d="M1427.17,130.88c-31.93-2.13-63.91-2.12-95.89-2.55-9.79-.13-19.63,4.7-29.36.06-.56-23.12-.58-23.9,21.67-24.55,31.36-.93,62.76-.43,94.14-.82,6.76-.09,10.14,1.88,9.65,9.15C1427,118.39,1427.21,124.64,1427.17,130.88Z"/><path class="cls-16" d="M648.7,133.33c-13.87-6-28.7-3.28-42.83-3-13.15.26-26.3-.25-39.44.09-14.34.36-28.68.3-43,.42q-.06-12.57-.11-25.16c11.49-4.93,23.55-2.12,35.36-2.43,26.09-.69,52.19,0,78.29,0,4,0,8.39-.76,11.84,2.44Z"/><path class="cls-17" d="M156.77,168.27l0-37.43c1.63-3.36,4.3-4.74,8-4.73,17.42,0,34.83,1.41,52.28-.34,5.14-.51,11,.16,14.74,5.11q0,18.69,0,37.38a10.71,10.71,0,0,1-6.52,3.35,485.38,485.38,0,0,1-62,0A10.77,10.77,0,0,1,156.77,168.27Z"/><path class="cls-18" d="M1479.86,123.29v55.07a61.11,61.11,0,0,1-47.34,0V123.28Z"/><path class="cls-19" d="M648.68,180.83c0,4.17.16,8.34,0,12.5-.17,5-2.87,7.5-8,7.54-29.4.22-58.79.71-88.18.56-6.65,0-13.43-.9-20-1.46-14.34-1.24-7.91-13.49-9.15-21.57,19.26-4,38.68-1,58-.91,19.17.09,38.33-.21,57.5-.37C642.64,177.09,646.54,176.59,648.68,180.83Z"/><path class="cls-19" d="M1427.23,178.39c0,5,.13,10,0,15s-3,7.42-8.07,7.46c-29.33.2-58.66.67-88,.55-6.67,0-13.45-.92-20.08-1.46-14.38-1.19-8-13.47-9.19-21.57,18.47-3.79,37.08-.8,55.62-1,20.88-.23,41.77.14,62.66-.56C1422.63,176.75,1425.19,176.39,1427.23,178.39Z"/><path class="cls-20" d="M156.77,168.27h75q.06,12.6.13,25.19a15.12,15.12,0,0,1-10.27,3.81q-27.36.7-54.72,0a15.13,15.13,0,0,1-10.27-3.81Z"/><path class="cls-21" d="M648.68,180.83c-17.66-.16-35.34.17-53-.63-14.23-.64-28.36.76-42.87-1.53-8.85-1.39-19.51,2.4-29.46-.27l.12-12.61h125.1Z"/><path class="cls-22" d="M1427.23,178.39c-41.79,4-83.58,2.41-125.37,0q.06-6.3.11-12.59H1427.1Q1427.16,172.1,1427.23,178.39Z"/><path class="cls-5" d="M648.79,105.69c-25.39.24-50.77.63-76.15.68-16.45,0-32.9-.44-49.34-.69-2.63-12.3,4.28-14,14.34-13.87,32.47.27,65,.09,97.43-.16C644.9,91.58,650.08,95.27,648.79,105.69Z"/><path class="cls-15" d="M231.8,130.88c-25-2.75-50-2.36-75.05,0q-.06-12.59-.11-25.17c25.09,1.63,50.19.23,75.28,0Z"/><path class="cls-23" d="M1432.53,178.36h47.34q0,17.55.07,35.11c-12.78,0-25.57-.22-38.34.17-7,.21-9.65-2.38-9.31-9.33C1432.71,195.68,1432.48,187,1432.53,178.36Z"/><path class="cls-5" d="M156.65,193.45h75.26c1.92,10.77-1.29,15.08-13.39,14.06a335.1,335.1,0,0,0-48.78-.09C158.38,208.12,154.83,203.91,156.65,193.45Z"/><path class="cls-24" d="M307.56,904c-43.79,2-88.13-40-86.06-88.11,1.92-44.42,39.82-82.77,85.4-82.62,47.11.15,85.57,38.26,85.84,84.44C393,866.72,351.63,905.26,307.56,904Z"/><path class="cls-25" d="M1517.91,751.36c11.67-6,24.18-1.87,36.25-2.92,5.3-.47,10.66-.21,16-.29,5.82-3.57,6.4-9.41,6.53-15.37.22-10,0-20.08.15-30.11.09-5-.21-10.15,3.86-14.08,18.8-6.17,38-2.47,57.08-2.2,5.68.08,5.54,6.3,5.53,11,0,14.22.32,28.46-.15,42.67-.22,6.7,2,8.62,8.55,8.42,14.21-.43,28.45,0,42.68-.18,6.75-.08,11.66,1.55,11.67,9.47,0,14.65-.1,29.29.08,43.94,0,4.31-1.93,7.07-5.2,9.33-13.28,7.19-27.65,2.36-41.45,3.78-5.54.56-11.82-1.77-16,4.14-.08,14.18-.28,28.36-.16,42.54.05,5.83-.47,10.94-7.3,12.61-16.39,4.57-33.09,2-49.63,1.71-7.07-.15-8.91-6.76-9.44-12.84-1-11.22-.21-22.49-.5-33.73-.34-13.44-1.15-14.24-14.23-14.37-10.42-.11-20.85.3-31.26-.16-11.82-.52-16.85-4.38-16.71-15.65C1514.48,783.16,1509.68,766.7,1517.91,751.36Z"/><path class="cls-26" d="M1517.91,751.36c-.06,15.87.21,31.75-.31,47.6-.31,9.38,3.56,12.64,12.63,12.3,12.52-.48,25.09.4,37.59-.29,9.51-.53,13.64,2,12.91,12.38-.92,12.88.07,25.89-.32,38.82-.27,8.61,3.13,12,11.79,11.85,14.61-.34,29.23,0,43.85.11-2.36,4.26-6.25,4.87-10.67,4.84-14.18-.12-28.37-.2-42.55,0-9.19.13-12.6-4.4-12.43-13.16.25-12.92-.25-25.86.18-38.78.23-6.68-2.24-8.65-8.67-8.48-13.75.38-27.53-.07-41.29.17-8.87.16-13.13-3.5-13-12.6.22-14.59,0-29.19.09-43.79C1507.75,755.66,1510,750.86,1517.91,751.36Z"/><path class="cls-26" d="M1580.69,688.59c-.06,16.46-.46,32.93,0,49.38.21,8-2.19,11.73-10.5,10.18q.15-23.68.31-47.38C1570.49,693.85,1571.91,688.14,1580.69,688.59Z"/><path class="cls-26" d="M1643.51,819c-1.12-7.34,3.36-7.94,9-7.9,16.14.15,32.27,0,48.41,0-2.75,6.1-7.58,7.82-14,7.72C1672.43,818.55,1658,818.88,1643.51,819Z"/><path class="cls-27" d="M307,891.45c-40.88-.23-75-34.56-75-75.37s34.27-75.09,75-75.2c41.35-.11,75.91,34.63,75.55,75.92C382.22,857.58,347.68,891.67,307,891.45Z"/><path class="cls-26" d="M1635.7,777.9c-.3,13.44-13,26.07-25.72,25.69-13.41-.4-24.74-12.73-24.4-26.56.29-11.9,12.94-24,24.68-23.58C1623.28,753.9,1636,766.1,1635.7,777.9Z"/><path class="cls-28" d="M1669,797.59V760.3C1694.75,781,1692.25,776.75,1669,797.59Z"/><path class="cls-29" d="M1632.35,722c-2.4.65-3.47,1.19-4.54,1.2-9.9.07-19.79,0-31,0,4.52-8.5,10.53-17.54,17.63-17.68C1621.05,705.44,1626.47,715.19,1632.35,722Z"/><path class="cls-29" d="M1594.44,836.9H1629C1609.72,860.24,1613.62,860,1594.44,836.9Z"/><path class="cls-26" d="M1557.91,762.15v32.79C1536.65,780.51,1536.66,776.29,1557.91,762.15Z"/><rect class="cls-8" x="518.57" y="264.94" width="906.9" height="653.9" rx="20.69"/><rect class="cls-26" x="567.22" y="316.18" width="809.59" height="502.77" rx="3.37"/><rect class="cls-30" x="578.9" y="329.16" width="786.24" height="476.8"/><rect x="828" y="842.94" width="291.92" height="50.6" rx="3.92"/><rect class="cls-31" x="839.68" y="852.67" width="118.71" height="31.14" rx="3.92"/><rect class="cls-31" x="989.53" y="852.67" width="118.71" height="31.14" rx="3.92"/><rect class="cls-32" x="846.15" y="851.69" width="113.55" height="28.22" rx="3.92"/><rect class="cls-32" x="996" y="851.69" width="113.55" height="28.22" rx="3.92"/><rect class="cls-33" x="156.59" y="288.29" width="50.6" height="50.6"/><rect class="cls-33" x="156.59" y="364.19" width="50.6" height="50.6"/><rect class="cls-34" x="150.75" y="290.24" width="5.84" height="50.6"/><rect class="cls-34" x="150.75" y="366.14" width="5.84" height="50.6"/><circle class="cls-35" cx="306.44" cy="815.69" r="64.22"/><circle class="cls-36" cx="306.44" cy="815.69" r="51.87"/><circle class="cls-37" cx="306.44" cy="815.69" r="37.46"/><circle class="cls-38" cx="306.44" cy="786.5" r="27.25"/><rect class="cls-1" x="131.29" y="95.62" width="25.3" height="194.61"/></svg>