<svg id="Capa_1" data-name="Capa 1" xmlns="http://www.w3.org/2000/svg" viewBox="0 0 555 296.25"><defs><style>.cls-1{fill:#f97448;}.cls-2{fill:#f4533a;}.cls-3{fill:#f0dcdb;}.cls-4{fill:#ef511d;}.cls-5{fill:#fff;}</style></defs><rect class="cls-1" y="-0.07" width="556" height="296.25"/><polygon class="cls-2" points="108.49 0 0 233.36 0 0 108.49 0"/><path class="cls-3" d="M0,0H28.88L0,62.44S.06,0,0,0Z"/><polygon class="cls-2" points="446.51 296.25 555 62.89 555 296.25 446.51 296.25"/><path class="cls-3" d="M555,296.25H526.12L555,233.81S554.94,296.25,555,296.25Z"/><polygon class="cls-4" points="338.89 75.49 254.59 75.49 254.59 50.51 350.59 50.51 338.89 75.49"/><polygon points="350.59 50.51 338.89 75.49 512.15 75.49 512.15 50.51 350.59 50.51"/><path class="cls-5" d="M493.28,63.6h1.2a.26.26,0,0,1,.3.22,2.82,2.82,0,0,0,2.54,2.07,2.85,2.85,0,0,0,3-2c.08-.22.16-.3.4-.29.77,0,1.53,0,2.3,0,.24,0,.27.07.23.28a5.76,5.76,0,0,1-11.39-.07c0-.18,0-.21.19-.21Z"/><path class="cls-5" d="M501.82,62.4c-.39,0-.78,0-1.16,0-.19,0-.26-.06-.32-.24a2.82,2.82,0,0,0-2-2,2.88,2.88,0,0,0-3.5,1.94.33.33,0,0,1-.38.28h-2.27c-.23,0-.32,0-.27-.3a5.75,5.75,0,0,1,11.38.08c0,.19,0,.22-.21.22Z"/><path class="cls-5" d="M497.58,64.7a1.7,1.7,0,1,1,0-3.4,1.7,1.7,0,1,1,0,3.4Zm.86-1.69a.88.88,0,1,0-.88.88A.89.89,0,0,0,498.44,63Z"/></svg>